<svg width="105" height="104" viewBox="0 0 105 104" fill="none" xmlns="http://www.w3.org/2000/svg">
<mask id="mask0_9_82" style="mask-type:luminance" maskUnits="userSpaceOnUse" x="0" y="0" width="105" height="104">
<path d="M105 51.9182L104.521 58.9636C102.249 73.157 95.6029 84.509 84.5814 93.0188C73.4835 101.522 60.4152 104.97 45.3764 103.363C31.0233 101.116 19.5443 94.5436 10.939 83.6441C8.18188 80.1209 5.91067 76.2821 4.12573 72.1272L1.87533 65.7204C0.638917 61.3119 0.0138758 56.7111 0 51.9182C0.375277 37.2106 5.50091 24.9731 15.3769 15.2069C25.2529 5.44016 37.6271 0.371535 52.5001 0C67.3726 0.371535 79.7471 5.44016 89.6233 15.2069C99.4995 24.9731 104.625 37.2106 105 51.9182Z" fill="white"/>
</mask>
<g mask="url(#mask0_9_82)">
<mask id="mask1_9_82" style="mask-type:luminance" maskUnits="userSpaceOnUse" x="0" y="0" width="105" height="104">
<path d="M105 51.9182L104.521 58.9636C102.249 73.157 95.6029 84.509 84.5814 93.0188C73.4835 101.522 60.4152 104.97 45.3764 103.363C31.0233 101.116 19.5443 94.5436 10.939 83.6441C8.18188 80.1209 5.91067 76.2821 4.12573 72.1272L1.87533 65.7204C0.638917 61.3119 0.0138758 56.7111 0 51.9182C0.375277 37.2106 5.50091 24.9731 15.3769 15.2069C25.2529 5.44016 37.6271 0.371535 52.5001 0C67.3726 0.371535 79.7471 5.44016 89.6233 15.2069C99.4995 24.9731 104.625 37.2106 105 51.9182Z" fill="white"/>
</mask>
<g mask="url(#mask1_9_82)">
<path d="M0 0V104.97H105V0H0Z" fill="#846C64"/>
</g>
</g>
<mask id="mask2_9_82" style="mask-type:luminance" maskUnits="userSpaceOnUse" x="2" y="2" width="101" height="100">
<path d="M103 52.0436L102.539 58.8346C100.354 72.5155 93.9609 83.4577 83.3592 91.6602C72.6841 99.8563 60.1137 103.18 45.6477 101.631C31.8415 99.4655 20.7997 93.1299 12.5222 82.624C9.87019 79.228 7.6855 75.5278 5.96856 71.5229L3.80389 65.3475C2.61458 61.0982 2.01335 56.6635 2 52.0436C2.36098 37.8671 7.29135 26.0714 16.7911 16.6579C26.2909 7.24374 38.1937 2.35812 52.5001 2C66.8061 2.35812 78.7091 7.24374 88.2091 16.6579C97.7091 26.0714 102.639 37.8671 103 52.0436Z" fill="white"/>
</mask>
<g mask="url(#mask2_9_82)">
<mask id="mask3_9_82" style="mask-type:luminance" maskUnits="userSpaceOnUse" x="2" y="2" width="101" height="100">
<path d="M103 52.0436L102.539 58.8346C100.354 72.5155 93.9609 83.4577 83.3592 91.6602C72.6841 99.8563 60.1137 103.18 45.6477 101.631C31.8415 99.4655 20.7997 93.1299 12.5222 82.624C9.87019 79.228 7.6855 75.5278 5.96856 71.5229L3.80389 65.3475C2.61458 61.0982 2.01335 56.6635 2 52.0436C2.36098 37.8671 7.29135 26.0714 16.7911 16.6579C26.2909 7.24374 38.1937 2.35812 52.5001 2C66.8061 2.35812 78.7091 7.24374 88.2091 16.6579C97.7091 26.0714 102.639 37.8671 103 52.0436Z" fill="white"/>
</mask>
<g mask="url(#mask3_9_82)">
<path d="M2 2V103.18H103V2H2Z" fill="url(#paint0_radial_9_82)"/>
</g>
</g>
<defs>
<radialGradient id="paint0_radial_9_82" cx="0" cy="0" r="1" gradientUnits="userSpaceOnUse" gradientTransform="translate(52.4913 52.9772) scale(50.5178 50.0613)">
<stop stop-color="#FEEB3A"/>
<stop offset="0.015625" stop-color="#FEEA39"/>
<stop offset="0.0273438" stop-color="#FEEA38"/>
<stop offset="0.0390625" stop-color="#FEE938"/>
<stop offset="0.0507812" stop-color="#FEE937"/>
<stop offset="0.0625" stop-color="#FEE836"/>
<stop offset="0.0742188" stop-color="#FEE836"/>
<stop offset="0.0859375" stop-color="#FEE735"/>
<stop offset="0.0976562" stop-color="#FEE735"/>
<stop offset="0.109375" stop-color="#FEE634"/>
<stop offset="0.121094" stop-color="#FEE633"/>
<stop offset="0.132812" stop-color="#FEE533"/>
<stop offset="0.144531" stop-color="#FEE532"/>
<stop offset="0.15625" stop-color="#FEE432"/>
<stop offset="0.167969" stop-color="#FEE431"/>
<stop offset="0.179688" stop-color="#FEE330"/>
<stop offset="0.191406" stop-color="#FEE330"/>
<stop offset="0.203125" stop-color="#FEE22F"/>
<stop offset="0.214844" stop-color="#FEE22F"/>
<stop offset="0.226562" stop-color="#FEE12E"/>
<stop offset="0.238281" stop-color="#FEE12D"/>
<stop offset="0.25" stop-color="#FEE02D"/>
<stop offset="0.261719" stop-color="#FEE02C"/>
<stop offset="0.269531" stop-color="#FEE02C"/>
<stop offset="0.277344" stop-color="#FEDF2B"/>
<stop offset="0.285156" stop-color="#FEDF2B"/>
<stop offset="0.292969" stop-color="#FEDF2B"/>
<stop offset="0.300781" stop-color="#FEDE2A"/>
<stop offset="0.308594" stop-color="#FEDE2A"/>
<stop offset="0.316406" stop-color="#FEDE29"/>
<stop offset="0.324219" stop-color="#FEDD29"/>
<stop offset="0.332031" stop-color="#FEDD29"/>
<stop offset="0.339844" stop-color="#FEDD28"/>
<stop offset="0.347656" stop-color="#FEDC28"/>
<stop offset="0.355469" stop-color="#FEDC27"/>
<stop offset="0.363281" stop-color="#FEDC27"/>
<stop offset="0.371094" stop-color="#FEDB26"/>
<stop offset="0.378906" stop-color="#FEDB26"/>
<stop offset="0.394531" stop-color="#FEDA25"/>
<stop offset="0.410156" stop-color="#FED924"/>
<stop offset="0.425781" stop-color="#FED923"/>
<stop offset="0.441406" stop-color="#FED823"/>
<stop offset="0.457031" stop-color="#FED722"/>
<stop offset="0.472656" stop-color="#FED721"/>
<stop offset="0.488281" stop-color="#FED620"/>
<stop offset="0.503906" stop-color="#FED61F"/>
<stop offset="0.515625" stop-color="#FED51F"/>
<stop offset="0.527344" stop-color="#FED51E"/>
<stop offset="0.539062" stop-color="#FED41E"/>
<stop offset="0.550781" stop-color="#FED41D"/>
<stop offset="0.5625" stop-color="#FED31C"/>
<stop offset="0.574219" stop-color="#FED31C"/>
<stop offset="0.585938" stop-color="#FED21B"/>
<stop offset="0.597656" stop-color="#FED21B"/>
<stop offset="0.609375" stop-color="#FED11A"/>
<stop offset="0.621094" stop-color="#FED119"/>
<stop offset="0.632812" stop-color="#FED019"/>
<stop offset="0.640625" stop-color="#FED018"/>
<stop offset="0.648438" stop-color="#FED018"/>
<stop offset="0.65625" stop-color="#FECF18"/>
<stop offset="0.664062" stop-color="#FECF17"/>
<stop offset="0.671875" stop-color="#FECF17"/>
<stop offset="0.679688" stop-color="#FECE16"/>
<stop offset="0.6875" stop-color="#FECE16"/>
<stop offset="0.695312" stop-color="#FECD15"/>
<stop offset="0.710938" stop-color="#FECD15"/>
<stop offset="0.726562" stop-color="#FECC14"/>
<stop offset="0.742188" stop-color="#FECB13"/>
<stop offset="0.757812" stop-color="#FECB12"/>
<stop offset="0.769531" stop-color="#FECA12"/>
<stop offset="0.78125" stop-color="#FECA11"/>
<stop offset="0.792969" stop-color="#FEC910"/>
<stop offset="0.804688" stop-color="#FEC910"/>
<stop offset="0.816406" stop-color="#FEC90F"/>
<stop offset="0.824219" stop-color="#FEC80F"/>
<stop offset="0.832031" stop-color="#FEC80F"/>
<stop offset="0.839844" stop-color="#FEC80E"/>
<stop offset="0.847656" stop-color="#FEC70E"/>
<stop offset="0.863281" stop-color="#FEC60D"/>
<stop offset="0.878906" stop-color="#FEC60C"/>
<stop offset="0.890625" stop-color="#FEC50B"/>
<stop offset="0.902344" stop-color="#FEC50B"/>
<stop offset="0.914062" stop-color="#FEC40A"/>
<stop offset="0.921875" stop-color="#FEC40A"/>
<stop offset="0.929688" stop-color="#FEC409"/>
<stop offset="0.945312" stop-color="#FEC309"/>
<stop offset="0.957031" stop-color="#FEC308"/>
<stop offset="0.964844" stop-color="#FEC207"/>
<stop offset="0.980469" stop-color="#FEC207"/>
<stop offset="0.988281" stop-color="#FEC106"/>
<stop offset="1" stop-color="#FEC106"/>
</radialGradient>
</defs>
</svg>
